<svg width="259" height="244" viewBox="0 0 259 244" fill="none" xmlns="http://www.w3.org/2000/svg">
<path d="M10.7915 122C10.7915 116.385 15.6231 111.833 21.5832 111.833H237.416C243.377 111.833 248.208 116.385 248.208 122C248.208 127.615 243.377 132.167 237.416 132.167H21.5832C15.6231 132.167 10.7915 127.615 10.7915 122Z" fill="white"/>
<path d="M10.7915 40.6667C10.7915 35.0518 15.6231 30.5 21.5832 30.5H237.416C243.377 30.5 248.208 35.0518 248.208 40.6667C248.208 46.2815 243.377 50.8333 237.416 50.8333H21.5832C15.6231 50.8333 10.7915 46.2815 10.7915 40.6667Z" fill="white"/>
<path d="M10.7915 203.333C10.7915 197.718 15.6231 193.167 21.5832 193.167H237.416C243.377 193.167 248.208 197.718 248.208 203.333C248.208 208.948 243.377 213.5 237.416 213.5H21.5832C15.6231 213.5 10.7915 208.948 10.7915 203.333Z" fill="white"/>
</svg>
